# xmcd
#
# Track frame offsets: 
#        150
#        13603
#        25679
#        37138
#        49323
#        61862
#        77472
#        91345
#        102230
#        111497
#        123882
#        133902
#        146356
#        158696
#        172859
#        181381
#        202504
#        215362
#        234891
#        245480
#        261068
#        270519
#        281506
#        292954
#        304748
#        322227
#        341867
#
# Disc length: 4721 seconds
#
# Revision: 6
# Processed by: cddbd v1.5.2PL0 Copyright (c) Steve Scherf et al.
# Submitted via: ExactAudioCopyFreeDBPlugin 1.0
#
DISCID=78126f1b
DTITLE=Willie Nelson - One Hell Of A Ride Disc 2
DYEAR=2008
DGENRE=Country
TTITLE0=Good Hearted Woman (Waylon and Willie)
TTITLE1=You Left A Long, Long Time Ago
TTITLE2=She's Not For You
TTITLE3=You Ought To Hear Me Cry
TTITLE4=It Should Be Easier Now
TTITLE5=Mammas Don't Let Your Babies Grow Up To Be Cowboys (Waylon and W
TTITLE5=illie)
TTITLE6=If You Can Touch Her At All (Waylon and Willie)
TTITLE7=I Can Get Off On You (Waylon and Willie)
TTITLE8=Blackjack County Chain
TTITLE9=Johnny One Time
TTITLE10=Bring Me Sunshine
TTITLE11=I Just Can't Let You Say Goodbye
TTITLE12=Shotgun Willie
TTITLE13=Sad Songs And Waltzes
TTITLE14=The Troublemaker
TTITLE15=Uncloudy Day
TTITLE16=Bloody Mary Morning
TTITLE17=I Still Can't Believe You're Gone
TTITLE18=Blue Eyes Crying In The Rain
TTITLE19=I'd Have To Be Crazy
TTITLE20=If You've Got The Money I've Got The Time
TTITLE21=Always Late (With Your Kisses)
TTITLE22=She's Gone, Gone, Gone
TTITLE23=I Never Go Around Mirrors
TTITLE24=Stardust
TTITLE25=Georgia On My Mind
TTITLE26=A Song For You (live)
EXTD=
EXTT0=
EXTT1=
EXTT2=
EXTT3=
EXTT4=
EXTT5=
EXTT6=
EXTT7=
EXTT8=
EXTT9=
EXTT10=
EXTT11=
EXTT12=
EXTT13=
EXTT14=
EXTT15=
EXTT16=
EXTT17=
EXTT18=
EXTT19=
EXTT20=
EXTT21=
EXTT22=
EXTT23=
EXTT24=
EXTT25=
EXTT26=
PLAYORDER=
